<?xml version="1.0" encoding="utf-8"?>
<!-- Generator: Adobe Illustrator 26.0.1, SVG Export Plug-In . SVG Version: 6.00 Build 0)  -->
<svg version="1.1" id="Layer_1" xmlns="http://www.w3.org/2000/svg" xmlns:xlink="http://www.w3.org/1999/xlink" x="0px" y="0px"
	 viewBox="0 0 42 42" style="enable-background:new 0 0 42 42;" xml:space="preserve">
<style type="text/css">
	
		.st0{fill-rule:evenodd;clip-rule:evenodd;fill:url(#SVGID_1_);stroke:url(#SVGID_00000078744028458941748180000009138584198959436987_);stroke-width:0.25;}
</style>
<linearGradient id="SVGID_1_" gradientUnits="userSpaceOnUse" x1="0.298" y1="21" x2="41.702" y2="21">
	<stop  offset="0.2593" style="stop-color:#FFDB6E"/>
	<stop  offset="1" style="stop-color:#FFBC5E"/>
</linearGradient>
<linearGradient id="SVGID_00000176722420057166382720000017207025564143350440_" gradientUnits="userSpaceOnUse" x1="0.173" y1="21" x2="41.827" y2="21">
	<stop  offset="0.2593" style="stop-color:#FFDB6E"/>
	<stop  offset="1" style="stop-color:#FFBC5E"/>
</linearGradient>
<path style="fill-rule:evenodd;clip-rule:evenodd;fill:url(#SVGID_1_);stroke:url(#SVGID_00000176722420057166382720000017207025564143350440_);stroke-width:0.25;" d="
	M9.2,9.9L9.2,9.9c0.8-0.2,1.6-0.3,2.5-0.3c0.8,0,1.6,0.1,2.4,0.3h27.7v22.1H14c-0.8,0.2-1.6,0.3-2.4,0.3c-0.8,0-1.6-0.1-2.4-0.3H9.2
	v0c-2.1-0.5-4.1-1.6-5.5-3c-2.1-2.1-3.3-4.9-3.3-8c0-3.1,1.3-6,3.3-8v0C5.1,11.5,7,10.4,9.2,9.9L9.2,9.9L9.2,9.9z M8.1,21v5.5
	c0,0.1-0.1,0.9,0.6,1.1c0.5,0.1,1,0,1.4-0.3l7.1-5.3c0.3-0.2,0.5-0.6,0.5-1c0-0.4-0.2-0.7-0.5-1l-7.1-5.3c-0.4-0.3-0.9-0.5-1.4-0.3
	c-0.7,0.2-0.7,1-0.6,1.1V21L8.1,21z M16.7,31.1h0.2V31L16.7,31.1L16.7,31.1z M20.7,27.8h4V14.4h-3.8c1.3,1.9,2.1,4.1,2.1,6.6
	C23,23.6,22.1,25.9,20.7,27.8L20.7,27.8z M18.6,12.1c0.3,0.3,0.6,0.5,0.9,0.8h1.2v-1.6h-2.1V12.1L18.6,12.1z M19.1,29.5
	c-0.2,0.1-0.3,0.3-0.5,0.4v1.2h2.1v-1.6H19.1L19.1,29.5z M18.3,14.4c-1.7-1.7-4-2.7-6.6-2.7c-2.6,0-4.9,1.1-6.6,2.8v0
	c-1.7,1.7-2.7,4-2.7,6.6c0,2.6,1.1,4.9,2.7,6.6c1.7,1.7,4,2.8,6.6,2.8c2.6,0,4.9-1.1,6.6-2.7v0c1.7-1.7,2.8-4,2.8-6.6
	C21,18.4,20,16.1,18.3,14.4L18.3,14.4z M26.3,14.4v13.4h13.5V14.4H26.3L26.3,14.4z M22.4,11.3v1.6h2.1v-1.6H22.4L22.4,11.3z
	 M26.2,11.3v1.6h2.1v-1.6H26.2L26.2,11.3z M29.9,11.3v1.6h2.1v-1.6H29.9L29.9,11.3z M33.7,11.3v1.6h2.1v-1.6H33.7L33.7,11.3z
	 M37.5,11.3v1.6h2.1v-1.6H37.5L37.5,11.3z M22.4,29.5v1.6h2.1v-1.6H22.4L22.4,29.5z M26.2,29.5v1.6h2.1v-1.6H26.2L26.2,29.5z
	 M29.9,29.5v1.6h2.1v-1.6H29.9L29.9,29.5z M33.7,29.5v1.6h2.1v-1.6H33.7L33.7,29.5z M37.5,29.5v1.6h2.1v-1.6H37.5z"/>
</svg>
