<?xml version="1.0" encoding="utf-8"?>
<!-- Generator: Adobe Illustrator 26.0.1, SVG Export Plug-In . SVG Version: 6.00 Build 0)  -->
<svg version="1.1" id="Layer_1" xmlns="http://www.w3.org/2000/svg" xmlns:xlink="http://www.w3.org/1999/xlink" x="0px" y="0px"
	 viewBox="0 0 40 40" style="enable-background:new 0 0 40 40;" xml:space="preserve">
<style type="text/css">
	.st0{fill:none;stroke:url(#SVGID_1_);stroke-miterlimit:10;}
	.st1{fill:url(#SVGID_00000092430010363890844750000013301524297883896226_);}
	.st2{fill:url(#SVGID_00000031902588696312623020000000878139012165504145_);}
	.st3{fill:url(#SVGID_00000103260514619261562860000012439145719273588670_);}
	.st4{opacity:0.15;fill:url(#SVGID_00000127763207975279420800000009369692876860286361_);enable-background:new    ;}
</style>
<g>
	<linearGradient id="SVGID_1_" gradientUnits="userSpaceOnUse" x1="4.9732" y1="16.1989" x2="35.0182" y2="16.1989">
		<stop  offset="0.2593" style="stop-color:#FFDB6E"/>
		<stop  offset="1" style="stop-color:#FFBC5E"/>
	</linearGradient>
	<path class="st0" d="M34.5,15.3c0-8.3-7-15-15.5-14.5c-7.4,0.5-13.2,6.6-13.5,14c-0.2,5.9,3,11,7.9,13.4c1.1,0.5,1.7,1.6,1.7,2.7
		v0.7h9.7V31c0-1.2,0.7-2.3,1.8-2.7C31.3,25.9,34.5,21,34.5,15.3z"/>
	
		<linearGradient id="SVGID_00000060747057503176227720000014450487422878416054_" gradientUnits="userSpaceOnUse" x1="15.1579" y1="9.7496" x2="24.8651" y2="9.7496" gradientTransform="matrix(1 0 0 -1 0 42)">
		<stop  offset="0.2593" style="stop-color:#FFDB6E"/>
		<stop  offset="1" style="stop-color:#FFBC5E"/>
	</linearGradient>
	<path style="fill:url(#SVGID_00000060747057503176227720000014450487422878416054_);" d="M24.4,33.1h-8.8c-0.2,0-0.4,0-0.4-0.1
		v-1.6c0,0,0.2-0.1,0.4-0.1h8.8c0.2,0,0.4,0,0.4,0.1V33C24.9,33,24.7,33.1,24.4,33.1z"/>
	
		<linearGradient id="SVGID_00000033339637064010187030000018107817825977755572_" gradientUnits="userSpaceOnUse" x1="15.1579" y1="7.2972" x2="24.8651" y2="7.2972" gradientTransform="matrix(1 0 0 -1 0 42)">
		<stop  offset="0.2593" style="stop-color:#FFDB6E"/>
		<stop  offset="1" style="stop-color:#FFBC5E"/>
	</linearGradient>
	<path style="fill:url(#SVGID_00000033339637064010187030000018107817825977755572_);" d="M24.4,35.6h-8.8c-0.2,0-0.4,0-0.4-0.1
		v-1.6c0,0,0.2-0.1,0.4-0.1h8.8c0.2,0,0.4,0,0.4,0.1v1.6C24.9,35.6,24.7,35.6,24.4,35.6z"/>
	
		<linearGradient id="SVGID_00000179640567083547771720000015085607011485579400_" gradientUnits="userSpaceOnUse" x1="16.6646" y1="3.7657" x2="23.3528" y2="3.7657" gradientTransform="matrix(1 0 0 -1 0 42)">
		<stop  offset="0.2593" style="stop-color:#FFDB6E"/>
		<stop  offset="1" style="stop-color:#FFBC5E"/>
	</linearGradient>
	<path style="fill:url(#SVGID_00000179640567083547771720000015085607011485579400_);" d="M20.2,40h-0.4c-1.8,0-3.1-1.4-3.1-3.1
		c0-0.2,0.2-0.4,0.4-0.4h5.9c0.2,0,0.4,0.2,0.4,0.4C23.3,38.6,22,40,20.2,40z"/>
	
		<linearGradient id="SVGID_00000079488432903858914170000000515140497675884933_" gradientUnits="userSpaceOnUse" x1="8.4044" y1="24.4433" x2="30.28" y2="24.4433" gradientTransform="matrix(1 0 0 -1 0 42)">
		<stop  offset="0.2593" style="stop-color:#FFDB6E"/>
		<stop  offset="1" style="stop-color:#FFBC5E"/>
	</linearGradient>
	<path style="opacity:0.15;fill:url(#SVGID_00000079488432903858914170000000515140497675884933_);enable-background:new    ;" d="
		M27.5,17.3v-0.7V16v-1.3c0-0.6,0-1.2,0-1.8l2.7,1.1l-3.5-7.3L23.1,14l2.6-1.1c0,0.6,0,1.2,0,1.8V16v0.7v0.6c0,0.8-0.2,1.6-0.4,2.4
		c-0.5,1.6-1.3,2.9-2.5,4.1c-1.1,1.2-2.6,2-4,2.6c-1.5,0.6-3,0.7-4.6,0.5c0.3-0.1,0.7-0.1,1-0.2c1.3-0.4,2.4-1.1,3.3-2
		c1-0.9,1.7-2.1,2.1-3.3c0.2-0.6,0.4-1.3,0.4-2v-0.5v-0.5v-0.9v-0.9l2.6,1.1l-3.5-7.3l-3.5,7.3l2.7-1.1v0.9v0.9v0.5v0.4
		c0,0.5-0.1,1.1-0.2,1.6c-0.3,1.1-0.8,2-1.6,2.8c-0.7,0.8-1.7,1.5-2.7,1.9c-1.3,0.5-2.6,0.6-3.9,0.3c0.5-0.2,1-0.5,1.4-0.9
		c0.6-0.6,1.1-1.3,1.4-2c0.1-0.4,0.2-0.8,0.3-1.2v-0.3v-0.3v-0.5l0.1-1l2.7,1.1l-3.5-7.3l-3.5,7.3l2.6-1.1l0.1,1v0.5v0.3v0.2
		c0,0.3,0,0.6-0.1,0.9c-0.1,0.6-0.4,1.1-0.8,1.6c-0.4,0.5-0.9,0.8-1.5,1.1c-0.1,0-0.2,0.1-0.3,0.1c0,0-0.1,0-0.1-0.1
		c-0.5-0.3-0.9-0.7-1.3-1c1,1.4,2.3,2.6,3.7,3.4c2.4,0.9,5,1,7.4,0.2c1.8-0.6,3.3-1.6,4.6-2.8c1.3-1.4,2.3-2.9,2.8-4.7
		C27.3,19.2,27.5,18.2,27.5,17.3z"/>
</g>
</svg>
